<?xml version="1.0" encoding="UTF-8"?>
<svg width="700pt" height="700pt" version="1.1" viewBox="0 0 700 700" xmlns="http://www.w3.org/2000/svg" xmlns:xlink="http://www.w3.org/1999/xlink">
 <defs>
  <symbol id="w" overflow="visible">
   <path d="m19.734-1.1875c-1.0117 0.53125-2.0703 0.93359-3.1719 1.2031-1.1055 0.26953-2.2578 0.40625-3.4531 0.40625-3.5859 0-6.4219-1-8.5156-3-2.0859-2-3.125-4.7109-3.125-8.1406 0-3.4375 1.0391-6.1562 3.125-8.1562 2.0938-2 4.9297-3 8.5156-3 1.1953 0 2.3477 0.13672 3.4531 0.40625 1.1016 0.27344 2.1602 0.66797 3.1719 1.1875v4.4531c-1.0234-0.69531-2.0312-1.207-3.0312-1.5312-1-0.33203-2.0547-0.5-3.1562-0.5-1.9688 0-3.5234 0.63672-4.6562 1.9062-1.1367 1.2617-1.7031 3.0078-1.7031 5.2344 0 2.2188 0.56641 3.9648 1.7031 5.2344 1.1328 1.2617 2.6875 1.8906 4.6562 1.8906 1.1016 0 2.1562-0.16016 3.1562-0.48438 1-0.33203 2.0078-0.84766 3.0312-1.5469z"/>
  </symbol>
  <symbol id="b" overflow="visible">
   <path d="m14.453-11.734c-0.46094-0.20703-0.91406-0.35938-1.3594-0.45312-0.4375-0.10156-0.88672-0.15625-1.3438-0.15625-1.3242 0-2.3438 0.42969-3.0625 1.2812-0.71094 0.84375-1.0625 2.0586-1.0625 3.6406v7.4219h-5.1562v-16.109h5.1562v2.6406c0.66406-1.0508 1.4258-1.8164 2.2812-2.2969 0.85156-0.48828 1.8828-0.73438 3.0938-0.73438 0.16406 0 0.34766 0.007812 0.54688 0.015625 0.20703 0.011719 0.50391 0.042969 0.89062 0.09375z"/>
  </symbol>
  <symbol id="a" overflow="visible">
   <path d="m18.562-8.0938v1.4531h-12.047c0.125 1.2109 0.5625 2.1211 1.3125 2.7344 0.75 0.60547 1.7969 0.90625 3.1406 0.90625 1.082 0 2.1914-0.16016 3.3281-0.48438 1.1328-0.32031 2.3008-0.8125 3.5-1.4688v3.9688c-1.2188 0.46875-2.4375 0.82031-3.6562 1.0469-1.2188 0.23828-2.4375 0.35938-3.6562 0.35938-2.918 0-5.1836-0.73828-6.7969-2.2188-1.6172-1.4883-2.4219-3.5703-2.4219-6.25 0-2.625 0.78906-4.6875 2.375-6.1875 1.5938-1.5078 3.7812-2.2656 6.5625-2.2656 2.5312 0 4.5547 0.76562 6.0781 2.2969 1.5195 1.5234 2.2812 3.5586 2.2812 6.1094zm-5.2969-1.7188c0-0.97656-0.28906-1.7656-0.85938-2.3594-0.57422-0.60156-1.3203-0.90625-2.2344-0.90625-1 0-1.8125 0.28125-2.4375 0.84375-0.61719 0.5625-1 1.3711-1.1562 2.4219z"/>
  </symbol>
  <symbol id="e" overflow="visible">
   <path d="m9.7031-7.25c-1.0742 0-1.8867 0.18359-2.4375 0.54688-0.54297 0.36719-0.8125 0.90234-0.8125 1.6094 0 0.65625 0.21875 1.1719 0.65625 1.5469 0.4375 0.36719 1.0469 0.54688 1.8281 0.54688 0.96875 0 1.7812-0.34766 2.4375-1.0469 0.66406-0.69531 1-1.5664 1-2.6094v-0.59375zm7.8594-1.9375v9.1875h-5.1875v-2.3906c-0.6875 0.98047-1.4648 1.6953-2.3281 2.1406-0.86719 0.44531-1.918 0.67188-3.1562 0.67188-1.668 0-3.0234-0.48438-4.0625-1.4531-1.043-0.97656-1.5625-2.2422-1.5625-3.7969 0-1.8945 0.64844-3.2812 1.9531-4.1562 1.3008-0.88281 3.3438-1.3281 6.125-1.3281h3.0312v-0.40625c0-0.8125-0.32422-1.4062-0.96875-1.7812-0.63672-0.38281-1.6367-0.57812-3-0.57812-1.1055 0-2.1328 0.10938-3.0781 0.32812-0.94922 0.21875-1.8359 0.55469-2.6562 1v-3.9375c1.1016-0.26953 2.2109-0.47266 3.3281-0.60938 1.1133-0.13281 2.2266-0.20312 3.3438-0.20312 2.9062 0 5 0.57422 6.2812 1.7188 1.2891 1.1484 1.9375 3.0117 1.9375 5.5938z"/>
  </symbol>
  <symbol id="d" overflow="visible">
   <path d="m8.0938-20.688v4.5781h5.3125v3.6719h-5.3125v6.8438c0 0.75 0.14844 1.2578 0.45312 1.5156 0.30078 0.26172 0.89062 0.39062 1.7656 0.39062h2.6562v3.6875h-4.4219c-2.0312 0-3.4766-0.42188-4.3281-1.2656-0.84375-0.85156-1.2656-2.2969-1.2656-4.3281v-6.8438h-2.5625v-3.6719h2.5625v-4.5781z"/>
  </symbol>
  <symbol id="k" overflow="visible">
   <path d="m13.438-13.75v-8.6406h5.1875v22.391h-5.1875v-2.3281c-0.71094 0.94922-1.4922 1.6484-2.3438 2.0938-0.85547 0.4375-1.8438 0.65625-2.9688 0.65625-1.9805 0-3.6094-0.78516-4.8906-2.3594-1.2734-1.582-1.9062-3.6172-1.9062-6.1094 0-2.4766 0.63281-4.5039 1.9062-6.0781 1.2812-1.582 2.9102-2.375 4.8906-2.375 1.1133 0 2.0977 0.22656 2.9531 0.67188 0.86328 0.4375 1.6484 1.1328 2.3594 2.0781zm-3.3906 10.422c1.1016 0 1.9414-0.39844 2.5156-1.2031 0.58203-0.80078 0.875-1.9727 0.875-3.5156 0-1.5312-0.29297-2.6953-0.875-3.5-0.57422-0.8125-1.4141-1.2188-2.5156-1.2188-1.0938 0-1.9336 0.40625-2.5156 1.2188-0.58594 0.80469-0.875 1.9688-0.875 3.5 0 1.543 0.28906 2.7148 0.875 3.5156 0.58203 0.80469 1.4219 1.2031 2.5156 1.2031z"/>
  </symbol>
  <symbol id="j" overflow="visible">
   <path d="m11.047-3.3281c1.1016 0 1.9453-0.39844 2.5312-1.2031 0.58203-0.80078 0.875-1.9727 0.875-3.5156 0-1.5312-0.29297-2.6953-0.875-3.5-0.58594-0.8125-1.4297-1.2188-2.5312-1.2188-1.1055 0-1.9531 0.40625-2.5469 1.2188-0.58594 0.8125-0.875 1.9805-0.875 3.5 0 1.5312 0.28906 2.7031 0.875 3.5156 0.59375 0.80469 1.4414 1.2031 2.5469 1.2031zm-3.4219-10.422c0.70703-0.94531 1.4922-1.6406 2.3594-2.0781 0.86328-0.44531 1.8594-0.67188 2.9844-0.67188 1.9766 0 3.6016 0.79297 4.875 2.375 1.2812 1.5742 1.9219 3.6016 1.9219 6.0781 0 2.4922-0.64062 4.5273-1.9219 6.1094-1.2734 1.5742-2.8984 2.3594-4.875 2.3594-1.125 0-2.1211-0.22656-2.9844-0.67188-0.86719-0.44531-1.6523-1.1406-2.3594-2.0781v2.3281h-5.1562v-22.391h5.1562z"/>
  </symbol>
  <symbol id="i" overflow="visible">
   <path d="m0.35938-16.109h5.1562l4.3281 10.922 3.6875-10.922h5.1406l-6.7656 17.641c-0.6875 1.7891-1.4844 3.0391-2.3906 3.75-0.90625 0.71875-2.1055 1.0781-3.5938 1.0781h-2.9688v-3.375h1.6094c0.875 0 1.5078-0.14062 1.9062-0.42188 0.39453-0.28125 0.70312-0.78125 0.92188-1.5l0.15625-0.4375z"/>
  </symbol>
  <symbol id="h" overflow="visible">
   <path d="m15.734-3.9062h-8.6562l-1.3594 3.9062h-5.5781l7.9531-21.484h6.6094l7.9531 21.484h-5.5625zm-7.2812-4h5.8906l-2.9375-8.5469z"/>
  </symbol>
  <symbol id="v" overflow="visible">
   <path d="m2.4688-22.391h5.1562v22.391h-5.1562z"/>
  </symbol>
  <symbol id="g" overflow="visible">
   <path d="m2.4688-16.109h5.1562v16.109h-5.1562zm0-6.2812h5.1562v4.2031h-5.1562z"/>
  </symbol>
  <symbol id="f" overflow="visible">
   <path d="m15.5-15.609v4.2031c-0.69922-0.47656-1.4023-0.83203-2.1094-1.0625-0.71094-0.23828-1.4453-0.35938-2.2031-0.35938-1.4375 0-2.5586 0.42188-3.3594 1.2656-0.79297 0.84375-1.1875 2.0156-1.1875 3.5156 0 1.5117 0.39453 2.6875 1.1875 3.5312 0.80078 0.83594 1.9219 1.25 3.3594 1.25 0.8125 0 1.5781-0.11719 2.2969-0.35938 0.72656-0.23828 1.3984-0.59375 2.0156-1.0625v4.2188c-0.8125 0.29297-1.6367 0.50781-2.4688 0.65625-0.82422 0.15625-1.6523 0.23438-2.4844 0.23438-2.9062 0-5.1836-0.74219-6.8281-2.2344-1.6367-1.5-2.4531-3.5781-2.4531-6.2344s0.81641-4.7266 2.4531-6.2188c1.6445-1.4883 3.9219-2.2344 6.8281-2.2344 0.84375 0 1.6758 0.074219 2.5 0.21875 0.82031 0.14844 1.6406 0.37109 2.4531 0.67188z"/>
  </symbol>
  <symbol id="u" overflow="visible">
   <path d="m2.7031-21.484h5.5469v17.297h9.7188v4.1875h-15.266z"/>
  </symbol>
  <symbol id="c" overflow="visible">
   <path d="m10.141-12.828c-1.1367 0-2.0078 0.41406-2.6094 1.2344-0.59375 0.82422-0.89062 2.0078-0.89062 3.5469 0 1.543 0.29688 2.7266 0.89062 3.5469 0.60156 0.82422 1.4727 1.2344 2.6094 1.2344 1.125 0 1.9844-0.41016 2.5781-1.2344 0.59375-0.82031 0.89062-2.0039 0.89062-3.5469 0-1.5391-0.29688-2.7227-0.89062-3.5469-0.59375-0.82031-1.4531-1.2344-2.5781-1.2344zm0-3.6719c2.7695 0 4.9375 0.75 6.5 2.25 1.5625 1.4922 2.3438 3.5586 2.3438 6.2031 0 2.6484-0.78125 4.7188-2.3438 6.2188s-3.7305 2.25-6.5 2.25c-2.7812 0-4.9609-0.75-6.5312-2.25-1.5625-1.5-2.3438-3.5703-2.3438-6.2188 0-2.6445 0.78125-4.7109 2.3438-6.2031 1.5703-1.5 3.75-2.25 6.5312-2.25z"/>
  </symbol>
  <symbol id="t" overflow="visible">
   <path d="m15.062-15.609v3.9062c-1.1055-0.45703-2.1719-0.80078-3.2031-1.0312-1.0234-0.22656-1.9844-0.34375-2.8906-0.34375-0.98047 0-1.7109 0.125-2.1875 0.375-0.46875 0.24219-0.70312 0.61719-0.70312 1.125 0 0.40625 0.17578 0.72656 0.53125 0.95312 0.36328 0.21875 1.0078 0.38281 1.9375 0.48438l0.90625 0.125c2.6328 0.33594 4.4062 0.88672 5.3125 1.6562 0.91406 0.77344 1.375 1.9766 1.375 3.6094 0 1.7188-0.63672 3.0117-1.9062 3.875-1.2617 0.86719-3.1484 1.2969-5.6562 1.2969-1.0625 0-2.168-0.089844-3.3125-0.26562-1.1367-0.16406-2.3047-0.41406-3.5-0.75v-3.9062c1.0312 0.5 2.082 0.875 3.1562 1.125 1.082 0.25 2.1797 0.375 3.2969 0.375 1.0078 0 1.7656-0.14062 2.2656-0.42188 0.50781-0.28125 0.76562-0.69141 0.76562-1.2344 0-0.46875-0.17969-0.8125-0.53125-1.0312-0.34375-0.22656-1.0391-0.40625-2.0781-0.53125l-0.90625-0.10938c-2.3047-0.28906-3.9141-0.82031-4.8281-1.5938-0.91797-0.78125-1.375-1.9609-1.375-3.5469 0-1.707 0.58203-2.9727 1.75-3.7969 1.1641-0.82031 2.957-1.2344 5.375-1.2344 0.95703 0 1.957 0.074219 3 0.21875 1.0391 0.13672 2.1758 0.35938 3.4062 0.67188z"/>
  </symbol>
  <symbol id="s" overflow="visible">
   <path d="m13.078-22.391v3.375h-2.8438c-0.73047 0-1.2422 0.13672-1.5312 0.40625-0.28125 0.26172-0.42188 0.71875-0.42188 1.375v1.125h4.3906v3.6719h-4.3906v12.438h-5.1562v-12.438h-2.5625v-3.6719h2.5625v-1.125c0-1.7578 0.48828-3.0547 1.4688-3.8906 0.97656-0.84375 2.4922-1.2656 4.5469-1.2656z"/>
  </symbol>
  <symbol id="r" overflow="visible">
   <path d="m17.406-13.438c0.65625-1 1.4297-1.7578 2.3281-2.2812 0.89453-0.51953 1.8789-0.78125 2.9531-0.78125 1.8516 0 3.2656 0.57422 4.2344 1.7188 0.96875 1.1367 1.4531 2.793 1.4531 4.9688v9.8125h-5.1875v-8.4062c0.007812-0.125 0.015625-0.25391 0.015625-0.39062 0.007813-0.13281 0.015625-0.32812 0.015625-0.57812 0-1.1328-0.16797-1.957-0.5-2.4688-0.33594-0.51953-0.875-0.78125-1.625-0.78125-0.98047 0-1.7344 0.40625-2.2656 1.2188-0.53125 0.80469-0.80859 1.9688-0.82812 3.5v7.9062h-5.1719v-8.4062c0-1.7812-0.15625-2.9258-0.46875-3.4375-0.30469-0.51953-0.85156-0.78125-1.6406-0.78125-0.99219 0-1.7578 0.40625-2.2969 1.2188-0.53125 0.8125-0.79688 1.9766-0.79688 3.4844v7.9219h-5.1719v-16.109h5.1719v2.3594c0.63281-0.91406 1.3594-1.6016 2.1719-2.0625 0.82031-0.45703 1.7266-0.6875 2.7188-0.6875 1.1133 0 2.0977 0.27344 2.9531 0.8125 0.85156 0.53125 1.5 1.2812 1.9375 2.25z"/>
  </symbol>
  <symbol id="q" overflow="visible">
   <path d="m18.672-9.8125v9.8125h-5.1719v-7.4844c0-1.4062-0.03125-2.375-0.09375-2.9062s-0.17188-0.91406-0.32812-1.1562c-0.19922-0.34375-0.47656-0.60938-0.82812-0.79688-0.34375-0.1875-0.73438-0.28125-1.1719-0.28125-1.0742 0-1.918 0.41797-2.5312 1.25-0.61719 0.83594-0.92188 1.9844-0.92188 3.4531v7.9219h-5.1562v-22.391h5.1562v8.6406c0.78125-0.94531 1.6016-1.6406 2.4688-2.0781 0.875-0.44531 1.8438-0.67188 2.9062-0.67188 1.8516 0 3.2578 0.57422 4.2188 1.7188 0.96875 1.1367 1.4531 2.793 1.4531 4.9688z"/>
  </symbol>
  <symbol id="p" overflow="visible">
   <path d="m2.7031-21.484h6.1875l7.8125 14.734v-14.734h5.25v21.484h-6.1875l-7.8125-14.734v14.734h-5.25z"/>
  </symbol>
  <symbol id="o" overflow="visible">
   <path d="m2.2969-6.2812v-9.8281h5.1875v1.6094c0 0.875-0.007813 1.9766-0.015625 3.2969-0.011719 1.3125-0.015625 2.1875-0.015625 2.625 0 1.293 0.03125 2.2266 0.09375 2.7969 0.070313 0.57422 0.19141 0.99219 0.35938 1.25 0.20703 0.33594 0.47656 0.59375 0.8125 0.78125 0.34375 0.17969 0.73828 0.26562 1.1875 0.26562 1.0703 0 1.9141-0.41016 2.5312-1.2344 0.61328-0.82031 0.92188-1.9688 0.92188-3.4375v-7.9531h5.1406v16.109h-5.1406v-2.3281c-0.78125 0.9375-1.6094 1.6328-2.4844 2.0781-0.86719 0.44531-1.8203 0.67188-2.8594 0.67188-1.8672 0-3.2891-0.56641-4.2656-1.7031-0.96875-1.1445-1.4531-2.8125-1.4531-5z"/>
  </symbol>
  <symbol id="n" overflow="visible">
   <path d="m18.672-9.8125v9.8125h-5.1719v-7.5156c0-1.3828-0.03125-2.3438-0.09375-2.875s-0.17188-0.91406-0.32812-1.1562c-0.19922-0.34375-0.47656-0.60938-0.82812-0.79688-0.34375-0.1875-0.73438-0.28125-1.1719-0.28125-1.0742 0-1.918 0.41797-2.5312 1.25-0.61719 0.83594-0.92188 1.9844-0.92188 3.4531v7.9219h-5.1562v-16.109h5.1562v2.3594c0.78125-0.94531 1.6016-1.6406 2.4688-2.0781 0.875-0.44531 1.8438-0.67188 2.9062-0.67188 1.8516 0 3.2578 0.57422 4.2188 1.7188 0.96875 1.1367 1.4531 2.793 1.4531 4.9688z"/>
  </symbol>
  <symbol id="m" overflow="visible">
   <path d="m2.7031-21.484h9.2031c2.7266 0 4.8203 0.60938 6.2812 1.8281 1.4688 1.2109 2.2031 2.9375 2.2031 5.1875s-0.73438 3.9844-2.2031 5.2031c-1.4609 1.2109-3.5547 1.8125-6.2812 1.8125h-3.6562v7.4531h-5.5469zm5.5469 4.0156v6h3.0625c1.0703 0 1.8984-0.25781 2.4844-0.78125 0.58203-0.51953 0.875-1.2578 0.875-2.2188 0-0.96875-0.29297-1.707-0.875-2.2188-0.58594-0.51953-1.4141-0.78125-2.4844-0.78125z"/>
  </symbol>
  <symbol id="l" overflow="visible">
   <path d="m2.4688-16.109h5.1562v15.828c0 2.1562-0.52344 3.8008-1.5625 4.9375-1.0312 1.1328-2.5312 1.7031-4.5 1.7031h-2.5469v-3.375h0.89062c0.97656 0 1.6484-0.22656 2.0156-0.67188 0.36328-0.4375 0.54688-1.3047 0.54688-2.5938zm0-6.2812h5.1562v4.2031h-5.1562z"/>
  </symbol>
 </defs>
 <g>
  <path d="m206.46 477.47-1.9453 1.5898 3.5352 4.7148 2.8281-2.3008c-1.5312-1.293-3.0039-2.5898-4.418-4.0039z"/>
  <path d="m283.8 337.36c-4.9883-7.3945-12.941-12.258-21.797-13.332-8.8594-1.0742-17.742 1.7461-24.359 7.7305-6.9062 6.1836-11.316 14.676-12.402 23.879-1.0859 9.207 1.2305 18.492 6.5078 26.109 5.0469 7.2656 12.926 12.059 21.695 13.207 1.1953 0.085937 2.3984 0.085937 3.5938 0 8.4492-0.35938 16.48-3.7812 22.59-9.6289 6.1055-5.8477 9.875-13.719 10.598-22.145 1.1484-9.1055-1.1406-18.316-6.4258-25.82zm-16.918 26.289c-4.9062-0.023437-9.3125-2.9961-11.176-7.5352-1.8594-4.5391-0.80859-9.7539 2.6719-13.215 3.4766-3.4609 8.6953-4.4883 13.227-2.6055 4.5273 1.8828 7.4805 6.3086 7.4805 11.215 0 3.2305-1.2852 6.3281-3.5781 8.6055-2.2891 2.2812-5.3945 3.5508-8.625 3.5352z"/>
  <path d="m469.78 355.63c-1.0859-9.1289-5.5156-17.527-12.438-23.578-6.668-5.9375-15.527-8.7852-24.406-7.8398-8.8398 1.1133-16.781 5.9648-21.809 13.32-4.4258 6.2539-6.7734 13.738-6.7188 21.398 0.011719 1.5781 0.10938 3.1523 0.29297 4.7148 0.72266 8.4258 4.4922 16.301 10.602 22.148 6.1055 5.8477 14.137 9.2695 22.586 9.625 1.168-0.078125 2.332-0.23438 3.4766-0.46875 8.8281-1.1172 16.762-5.9414 21.812-13.266 5.3711-7.5586 7.7266-16.852 6.6016-26.055zm-42.09 8.0156c-4.9102 0-9.3398-2.957-11.219-7.4961-1.8789-4.5352-0.83984-9.7578 2.6328-13.23 3.4727-3.4727 8.6953-4.5117 13.234-2.6328 4.5391 1.8789 7.4961 6.3047 7.4961 11.219 0 6.707-5.4375 12.141-12.145 12.141z"/>
  <path d="m325.36 450.24c-9.8242-0.26953-19.246-3.957-26.645-10.434l4.0078-4.3047v0.003906c4.457 3.8203 9.7461 6.5469 15.445 7.957 11.789 2.8867 23.578-1.3555 33.953-12.672l4.3633 4.0664c-7.4727 8.9883-18.285 14.543-29.945 15.383z"/>
  <path d="m377.77 450.24h-1.2383c-11.664-0.82812-22.48-6.3867-29.945-15.383l4.3047-4.0664h-0.003907c6.3477 7.8164 15.609 12.715 25.645 13.555 8.6602-0.050781 17.02-3.1836 23.578-8.8398l4.0664 4.3047v-0.003906c-7.3398 6.4141-16.668 10.098-26.406 10.434z"/>
  <path d="m487.11 485.2-2.0039-1.4727c-12.91-9.3711-20.926-27.766-20.926-47.984 0-30.004 17.684-54.348 39.613-54.348h-0.003906c7.0156 0.027344 13.812 2.4375 19.277 6.8359l1.1211 0.82422v1.4141c0.58984 28.941-3.9492 51.402-13.559 66.789-6.1953 9.5312-13.496 18.297-21.754 26.113zm16.68-97.91c-18.629 0-33.719 21.75-33.719 48.453-0.6875 15.629 5.3164 30.809 16.508 41.734 7.2383-7.1094 13.645-15.02 19.098-23.578 8.8438-14.148 13.086-35.016 12.672-62.07h0.003907c-4.2617-3-9.3516-4.5898-14.562-4.5391z"/>
  <path d="m248.32 226.83c-16.742-58.062-42.559-107.05-76.633-145.6l4.4219-3.8906c34.719 39.199 60.895 88.953 77.93 147.9z"/>
  <path d="m202.81 269.51c-31.672-37.969-58.469-79.754-79.758-124.38l5.3633-2.4766h0.003907c21.004 44.148 47.504 85.465 78.871 122.96z"/>
  <path d="m173.87 79.285c-49.398-11.789-48.219 64.844-48.219 64.844-17.684-38.668-30.887-82.172-28.176-123.79-0.003906-0.003906 36.484 13.852 76.395 58.945z"/>
  <path d="m128.95 157.74-5.8984-12.613c-21.34-46.156-30.887-88.422-28.473-124.97v-4.0078l3.9531 1.5312c1.5312 0.58984 37.609 14.68 77.516 59.773l5.9531 6.8359-9.0781-2.1797c-8.8086-2.7383-18.395-1.0742-25.762 4.4805-18.98 15.387-18.566 56.824-18.566 57.238zm-28.77-132.98c-1.2383 31.773 6.543 67.555 23.168 106.64 1.3555-14.5 5.8945-37.785 20.336-49.398 6.3281-5.043 14.332-7.5078 22.402-6.8984-18.695-20.68-41.035-37.742-65.906-50.34z"/>
  <path d="m343.4 400.84s3.3594 8.0156 8.1328 8.0156c4.7773 0 8.1367-8.0156 8.1367-8.0156-5.125-2.5391-11.145-2.5391-16.27 0z"/>
  <path d="m351.53 411.51c-6.543 0-10.434-8.7812-10.848-9.7852l-1.1211-2.6523 2.6523-1.1797h0.003906c5.9727-2.9961 13.008-2.9961 18.98 0l2.1211 1.2969-0.94141 2.3594c-0.35547 1.1172-4.125 9.9609-10.848 9.9609zm-3.8906-9.3125c1.1797 1.8281 2.7109 3.418 3.8906 3.418 1.2969 0 2.8281-1.6523 4.0078-3.4766h0.003907c-2.5898-0.69922-5.3203-0.67969-7.9023 0.058594z"/>
  <path d="m447.26 223.41-5.8945-1.6523c17.035-58.949 43.266-108.7 77.93-147.9l4.4219 3.8906c-33.953 38.555-59.773 87.301-76.457 145.66z"/>
  <path d="m492.65 266.03-4.125-3.8906c31.25-37.52 57.668-78.809 78.633-122.91l5.3633 2.418h0.003906c-21.301 44.645-48.137 86.434-79.875 124.38z"/>
  <path d="m521.66 75.805c49.34-11.789 48.16 64.844 48.16 64.844 17.684-38.668 30.949-82.172 28.176-123.79 0 0-36.488 13.852-76.336 58.945z"/>
  <path d="m566.69 154.32v-13.91c0-0.41406 0.41406-41.91-18.805-57.297-7.3633-5.5547-16.953-7.2227-25.762-4.4805l-9.0781 2.1797 5.8945-6.957c40.32-45.094 76.516-59.18 77.988-59.77l3.5977-1.418v4.0078c2.418 36.781-7.1328 78.812-28.414 124.97zm-35.367-82.527h-0.003907c7.3359-0.11719 14.484 2.3203 20.223 6.8984 14.441 11.789 18.98 34.898 20.395 49.398 16.801-39.262 24.641-75.043 23.344-106.81-24.871 12.617-47.211 29.703-65.906 50.398z"/>
  <path d="m506.92 287.43c-4.418-12.113-11.098-23.273-19.688-32.891-44.508-42.324-93.375-62.781-145.36-60.008-59.891 2.8867-109.64 36.488-128.5 58.418l-2.0625 2.3594-0.003906-0.003907c-5.9453 6.1562-10.844 13.246-14.5 20.984-32.48 75.984-26.586 123.14-23.344 151.32l0.41406 3.5352c1.5039 13.535 6.8906 26.352 15.5 36.902 11.789 14.559 35.957 36.723 82.527 58.949v-0.003907c24.891 12.18 52.223 18.547 79.934 18.629 24.906 0.16797 49.566-4.9766 72.328-15.09l2.3008-1.1211h-0.003906c5.4102-2.6562 10.648-5.6484 15.68-8.9609 16.676-10.914 32.324-23.324 46.746-37.078 8.2852-7.8477 15.605-16.652 21.812-26.23 9.6094-15.387 14.148-37.844 13.559-66.789-1.543-34.887-7.3633-69.453-17.332-102.92zm-1.2383 166.47c-5.9648 9.1641-12.988 17.594-20.926 25.113-14.148 13.492-29.5 25.668-45.859 36.367-4.8906 3.2656-9.9688 6.2383-15.211 8.9023l-2.1797 1.0625c-23.258 10.238-48.477 15.246-73.883 14.668-25.402-0.58203-50.371-6.7344-73.133-18.027-22.91-10.586-44.301-24.184-63.605-40.438l-2.8281 2.3008-3.5352-4.7148 1.9453-1.5898v-0.007812c-4.5469-4.1016-8.7852-8.5352-12.676-13.262-7.8828-9.7109-12.762-21.512-14.027-33.953l-0.41406-3.5352v-0.003906c-1.6367-12.191-2.5039-24.477-2.5938-36.781 7.5117-4.0977 16.379-4.9297 24.523-2.3008 9.7266 3.9492 16.801 14.68 20.984 31.949 0 0.41406 8.9609 36.902-15.797 57.77 1.4141 1.3555 2.8867 2.6523 4.4219 4.0078 26.82-23.227 17.684-61.543 17.094-63.191-4.6562-19.219-12.91-31.359-24.523-36.016-8.6836-3.0664-18.223-2.6211-26.586 1.2383 1.7891-36.332 10.391-72.004 25.348-105.16 3.4414-7.1719 8.0195-13.738 13.559-19.449l2.0625-2.3594c18.156-20.691 66.316-53.465 124.32-56.059h8.3125c47.156 0 91.781 19.746 132.69 58.949l-0.003906-0.003906c7.7344 8.6758 13.863 18.656 18.098 29.477 9.8242 33.008 15.566 67.098 17.098 101.5v4.9531c0.058593 25.582-4.2461 45.332-12.676 58.594z"/>
  <path d="m210.88 481.54-2.8281 2.3008-3.5352-4.7148 1.9453-1.5898c1.4141 1.3477 2.8867 2.6445 4.418 4.0039z"/>
  <use x="70" y="648.421875" xlink:href="#w"/>
  <use x="91.628906" y="648.421875" xlink:href="#b"/>
  <use x="106.164062" y="648.421875" xlink:href="#a"/>
  <use x="126.15625" y="648.421875" xlink:href="#e"/>
  <use x="146.042969" y="648.421875" xlink:href="#d"/>
  <use x="160.132812" y="648.421875" xlink:href="#a"/>
  <use x="180.125" y="648.421875" xlink:href="#k"/>
  <use x="211.480469" y="648.421875" xlink:href="#j"/>
  <use x="232.582031" y="648.421875" xlink:href="#i"/>
  <use x="262.054688" y="648.421875" xlink:href="#h"/>
  <use x="284.863281" y="648.421875" xlink:href="#v"/>
  <use x="294.96875" y="648.421875" xlink:href="#g"/>
  <use x="305.070312" y="648.421875" xlink:href="#f"/>
  <use x="322.542969" y="648.421875" xlink:href="#g"/>
  <use x="332.644531" y="648.421875" xlink:href="#e"/>
  <use x="362.792969" y="648.421875" xlink:href="#u"/>
  <use x="381.574219" y="648.421875" xlink:href="#c"/>
  <use x="401.824219" y="648.421875" xlink:href="#b"/>
  <use x="416.359375" y="648.421875" xlink:href="#a"/>
  <use x="436.347656" y="648.421875" xlink:href="#t"/>
  <use x="70" y="677.894531" xlink:href="#s"/>
  <use x="82.824219" y="677.894531" xlink:href="#b"/>
  <use x="97.359375" y="677.894531" xlink:href="#c"/>
  <use x="117.605469" y="677.894531" xlink:href="#r"/>
  <use x="158.578125" y="677.894531" xlink:href="#d"/>
  <use x="172.667969" y="677.894531" xlink:href="#q"/>
  <use x="193.652344" y="677.894531" xlink:href="#a"/>
  <use x="223.902344" y="677.894531" xlink:href="#p"/>
  <use x="248.570312" y="677.894531" xlink:href="#c"/>
  <use x="268.816406" y="677.894531" xlink:href="#o"/>
  <use x="289.800781" y="677.894531" xlink:href="#n"/>
  <use x="321.042969" y="677.894531" xlink:href="#m"/>
  <use x="342.644531" y="677.894531" xlink:href="#b"/>
  <use x="357.179688" y="677.894531" xlink:href="#c"/>
  <use x="377.429688" y="677.894531" xlink:href="#l"/>
  <use x="387.53125" y="677.894531" xlink:href="#a"/>
  <use x="407.523437" y="677.894531" xlink:href="#f"/>
  <use x="424.992188" y="677.894531" xlink:href="#d"/>
 </g>
</svg>
